<svg width="1280" height="843" viewBox="0 0 1280 843" fill="none" xmlns="http://www.w3.org/2000/svg">
<path d="M627.251 -99.6972L997.217 522.66L707.444 424.093C657.739 407.226 603.836 407.421 554.254 424.647L243.523 533.11L627.251 -99.6972ZM629.781 -441C548.164 -441 490.273 -327.707 490.273 -327.707L-80.5736 613.547C-189.871 812.661 -63.3327 842.429 22.0807 842.429C43.9406 842.438 65.7638 840.637 87.3271 837.045L631.679 647.036L1206.72 837.045C1227.19 840.394 1247.9 842.167 1268.64 842.349C1480.36 842.349 1338.24 608.797 1338.24 608.797L773.481 -327.707C725.16 -412.657 670.669 -441 629.781 -441V-441Z" fill="white"/>
</svg>
