<svg width="25" height="24" viewBox="0 0 25 24" fill="none" xmlns="http://www.w3.org/2000/svg">
<path fill-rule="evenodd" clip-rule="evenodd" d="M22.0708 11.4964C21.9394 6.22628 17.5964 2 12.2606 2C6.92484 2 2.67667 6.13139 2.45039 11.3139C2.45039 11.4599 2.44309 11.5985 2.44309 11.7445C2.44309 13.5839 2.96134 15.3066 3.85185 16.7737L2.07812 22L7.51608 20.2701C8.92484 21.0438 10.538 21.4818 12.2606 21.4818C17.684 21.4818 22.0781 17.1168 22.0781 11.7372C22.0781 11.6569 22.0781 11.5693 22.0781 11.4891L22.0708 11.4964ZM12.2606 19.9343C10.5818 19.9343 9.02703 19.438 7.72046 18.5766L4.55258 19.5912L5.58177 16.5474C4.59637 15.1971 4.01243 13.5401 4.01243 11.7445C4.01243 11.4745 4.02703 11.2117 4.05623 10.9489C4.45039 6.80292 7.97593 3.55474 12.2606 3.55474C16.5453 3.55474 20.1584 6.89051 20.4869 11.1095C20.5088 11.3212 20.5161 11.5328 20.5161 11.7518C20.5161 16.2701 16.8081 19.9416 12.2606 19.9416V19.9343Z" fill="#783DBE"/>
<path fill-rule="evenodd" clip-rule="evenodd" d="M16.7573 13.7081C16.5165 13.5913 15.334 13.0073 15.115 12.9344C14.896 12.8541 14.7354 12.8176 14.5748 13.0511C14.4143 13.292 13.9471 13.8249 13.8084 13.9854C13.6624 14.146 13.5311 14.1679 13.2829 14.0438C13.042 13.9271 12.2683 13.6789 11.3486 12.8614C10.6332 12.2336 10.1515 11.4526 10.0128 11.2117C9.87412 10.9708 9.9982 10.8468 10.115 10.7227C10.2245 10.6132 10.3559 10.4453 10.48 10.3066C10.5092 10.2628 10.5384 10.2263 10.5675 10.1898C10.6259 10.1022 10.6624 10.0219 10.7208 9.90516C10.8011 9.74457 10.7646 9.60589 10.6989 9.4891C10.6405 9.37231 10.1588 8.18983 9.95441 7.71537C9.75733 7.24092 9.55295 7.32121 9.41426 7.32121C9.27558 7.32121 9.11499 7.29932 8.95441 7.29932C8.79382 7.29932 8.53105 7.35771 8.31207 7.59859C8.09309 7.83946 7.47266 8.4161 7.47266 9.59129C7.47266 9.86866 7.52375 10.146 7.59674 10.4015C7.83762 11.2409 8.36317 11.9344 8.45806 12.0584C8.57485 12.2117 10.1223 14.7081 12.5675 15.6643C15.0201 16.6132 15.0201 16.2993 15.4581 16.2555C15.896 16.219 16.8814 15.6789 17.0785 15.1168C17.2829 14.5621 17.2829 14.0803 17.2245 13.9781C17.1661 13.8833 17.0055 13.8249 16.7646 13.7008L16.7573 13.7081Z" fill="#783DBE"/>
</svg>
