<svg width="117" height="32" viewBox="0 0 117 32" fill="none" xmlns="http://www.w3.org/2000/svg">
<path d="M56.296 14.4154V12.6388H61.2957V29.8518H56.296V28.1345C55.1107 29.5991 53.4297 30.0749 51.7743 30.0749C46.2965 30.0749 43.4638 25.6848 43.4954 20.9433C43.5586 16.2334 46.2609 12.3526 51.8375 12.3526C53.5265 12.3467 55.1819 12.9823 56.296 14.4154ZM56.296 21.1269C56.296 18.8351 54.5438 16.9579 52.3788 16.9579C49.8325 16.9579 48.5583 18.9634 48.5267 21.0637C48.4951 23.1304 49.8009 25.2623 52.3788 25.2623C54.5438 25.2643 56.296 23.4186 56.296 21.1288V21.1269Z" fill="#783DBE"/>
<path d="M72.2475 30.1352C68.3955 30.1668 66.0704 28.3843 66.0704 23.8974V17.1188H63.8105V12.8254H66.0704V9.54668L71.0702 9.10254V12.8254H74.6674V17.1188H71.0702V23.8955C71.0702 25.4233 72.1843 25.901 73.3952 25.901C73.8768 25.8963 74.3566 25.8427 74.8274 25.7411L74.9874 29.8864C74.0819 30.0403 73.1659 30.1234 72.2475 30.1352Z" fill="#783DBE"/>
<path d="M82.6911 29.8463H77.6934V12.6333H82.2151L82.4126 13.7782C82.908 13.2932 83.4949 12.9114 84.1392 12.6548C84.7835 12.3983 85.4724 12.2723 86.1659 12.2839C86.8213 12.2942 87.4734 12.379 88.1097 12.5366L88.0445 17.2465C87.4975 17.0802 86.9292 16.9944 86.3575 16.9919C84.5421 17.0234 82.6951 17.9788 82.6951 20.3022L82.6911 29.8463Z" fill="#783DBE"/>
<path d="M93.3901 5.9197C94.9191 5.88812 96.5112 6.84155 96.5112 8.8471C96.5112 10.6928 95.0771 11.6107 93.6133 11.6462C92.0844 11.6778 90.4922 10.7559 90.4922 8.8471C90.4922 6.93827 91.9263 5.95129 93.3901 5.9197ZM90.9702 12.6312V29.8442H96.0648V12.6312H90.9702Z" fill="#783DBE"/>
<path d="M111.571 14.4154V12.6388H116.571V29.8518H111.571V28.1345C110.386 29.5991 108.705 30.0749 107.05 30.0749C101.572 30.0749 98.7392 25.6848 98.7708 20.9433C98.834 16.2334 101.536 12.3526 107.113 12.3526C108.802 12.3467 110.457 12.9823 111.571 14.4154ZM111.571 21.1269C111.571 18.8351 109.819 16.9579 107.654 16.9579C105.108 16.9579 103.834 18.9634 103.802 21.0637C103.771 23.1304 105.076 25.2623 107.654 25.2623C109.819 25.2643 111.571 23.4186 111.571 21.1288V21.1269Z" fill="#783DBE"/>
<path d="M18.7396 8.50978L27.9805 24.0271L20.7426 21.5695C19.5011 21.149 18.1547 21.1539 16.9163 21.5834L9.15492 24.2877L18.7396 8.50978ZM18.8028 0C16.7642 0 15.3182 2.82475 15.3182 2.82475L1.05972 26.2933C-1.67029 31.2578 1.49036 32 3.62379 32C4.1698 32.0002 4.7149 31.9553 5.2535 31.8658L18.8502 27.1282L33.2133 31.8658C33.7248 31.9493 34.2419 31.9935 34.7601 31.998C40.0482 31.998 36.4984 26.1748 36.4984 26.1748L22.3921 2.82475C21.1851 0.70668 19.8241 0 18.8028 0Z" fill="#783DBE"/>
</svg>
