<svg width="146" height="40" viewBox="0 0 146 40" fill="none" xmlns="http://www.w3.org/2000/svg">
<path d="M70.3702 18.02V15.7992H76.6199V37.3155H70.3702V35.1688C68.8887 36.9997 66.7873 37.5943 64.7181 37.5943C57.8709 37.5943 54.33 32.1067 54.3695 26.1798C54.4485 20.2925 57.8264 15.4415 64.7971 15.4415C66.9083 15.4341 68.9776 16.2286 70.3702 18.02ZM70.3702 26.4093C70.3702 23.5446 68.18 21.198 65.4737 21.198C62.2908 21.198 60.6982 23.705 60.6586 26.3304C60.6191 28.9138 62.2513 31.5787 65.4737 31.5787C68.18 31.5811 70.3702 29.274 70.3702 26.4118V26.4093Z" fill="white"/>
<path d="M90.3089 37.6687C85.4938 37.7082 82.5875 35.4801 82.5875 29.8715V21.3983H79.7627V16.0316H82.5875V11.9331L88.8372 11.3779V16.0316H93.3337V21.3983H88.8372V29.8691C88.8372 31.7789 90.2299 32.376 91.7435 32.376C92.3455 32.3701 92.9453 32.3032 93.5337 32.1762L93.7337 37.3578C92.6019 37.5501 91.4568 37.6541 90.3089 37.6687V37.6687Z" fill="white"/>
<path d="M103.364 37.3084H97.1172V15.7922H102.769L103.016 17.2233C103.635 16.617 104.369 16.1397 105.174 15.819C105.98 15.4984 106.841 15.3408 107.708 15.3554C108.527 15.3683 109.342 15.4742 110.138 15.6713L110.056 21.5586C109.372 21.3507 108.662 21.2435 107.947 21.2403C105.678 21.2798 103.369 22.474 103.369 25.3782L103.364 37.3084Z" fill="white"/>
<path d="M116.738 7.40036C118.649 7.36088 120.639 8.55267 120.639 11.0596C120.639 13.3667 118.846 14.5141 117.017 14.5585C115.105 14.5979 113.115 13.4456 113.115 11.0596C113.115 8.67357 114.908 7.43984 116.738 7.40036ZM113.713 15.7897V37.306H120.081V15.7897H113.713Z" fill="white"/>
<path d="M139.465 18.02V15.7992H145.715V37.3155H139.465V35.1688C137.983 36.9997 135.882 37.5943 133.813 37.5943C126.966 37.5943 123.425 32.1067 123.464 26.1798C123.543 20.2925 126.921 15.4415 133.892 15.4415C136.003 15.4341 138.072 16.2286 139.465 18.02ZM139.465 26.4093C139.465 23.5446 137.275 21.198 134.568 21.198C131.386 21.198 129.793 23.705 129.753 26.3304C129.714 28.9138 131.346 31.5787 134.568 31.5787C137.275 31.5811 139.465 29.274 139.465 26.4118V26.4093Z" fill="white"/>
<path d="M23.4245 10.6372L34.9756 30.0339L25.9283 26.9619C24.3764 26.4362 22.6934 26.4423 21.1453 26.9792L11.4436 30.3596L23.4245 10.6372ZM23.5035 0C20.9552 0 19.1477 3.53093 19.1477 3.53093L1.32465 32.8666C-2.08786 39.0722 1.86294 40 4.52974 40C5.21225 40.0003 5.89362 39.9442 6.56687 39.8322L23.5627 33.9103L41.5167 39.8322C42.156 39.9366 42.8024 39.9918 43.4501 39.9975C50.0603 39.9975 45.623 32.7185 45.623 32.7185L27.9901 3.53093C26.4814 0.88335 24.7801 0 23.5035 0V0Z" fill="white"/>
</svg>
