<svg width="375" height="728" viewBox="0 0 375 728" fill="none" xmlns="http://www.w3.org/2000/svg">
<path d="M308.092 193.503L517.715 546.351L353.53 490.468C325.367 480.905 294.826 481.016 266.732 490.782L90.672 552.276L308.092 193.503ZM309.526 0C263.282 0 230.481 64.2317 230.481 64.2317L-92.9612 597.88C-154.889 710.768 -83.1925 727.645 -34.7972 727.645C-22.4114 727.65 -10.0464 726.629 2.1714 724.592L310.602 616.866L636.418 724.592C648.02 726.491 659.75 727.496 671.505 727.6C791.462 727.6 710.938 595.187 710.938 595.187L390.947 64.2317C363.568 16.0691 332.693 0 309.526 0V0Z" fill="#BDA2E0"/>
</svg>
